# xmcd
#
# Track frame offsets:
#	150
#	3604
#	19908
#	41679
#	57661
#	85711
#	105954
#	130124
#	144834
#	164049
#	189805
#	210628
#	242637
#	274666
#
# Disc length: 4021 seconds
#
# Revision: 2
# Processed by: cddbd v1.5.1PL2 Copyright (c) Steve Scherf et al.
# Submitted via: EasyCDDAExtractor 8.0.2.1
#
DISCID=b80fb30e
DTITLE=Judas Priest - IPayone Center San Diego 29-10-05 Disc 1
DYEAR=2005
DGENRE=Hard Rock
TTITLE0=The Hellion
TTITLE1=Electric Eye
TTITLE2=Metal Gods
TTITLE3=Riding On The Wind
TTITLE4=Touch Of Evil
TTITLE5=Judas Rising
TTITLE6=Revolution
TTITLE7=Breaking The Law
TTITLE8=I'm A Rocker
TTITLE9=Diamonds And Rust
TTITLE10=Worth Fighting For
TTITLE11=Beyond The Realms Of Death
TTITLE12=Turbo Lover
TTITLE13=Hellrider
EXTD=
EXTT0=
EXTT1=
EXTT2=
EXTT3=
EXTT4=
EXTT5=
EXTT6=
EXTT7=
EXTT8=
EXTT9=
EXTT10=
EXTT11=
EXTT12=
EXTT13=
PLAYORDER=
